<svg width="512" height="512" viewBox="0 0 512 512" fill="none" xmlns="http://www.w3.org/2000/svg">
<rect width="512" height="512" rx="256" fill="white"/>
<path d="M237.891 474.122C228.729 474.141 219.932 470.461 213.425 463.885C206.919 457.31 203.233 448.375 203.174 439.036V262.038C203.222 255.606 204.993 249.311 208.295 243.831C211.597 238.35 216.305 233.893 221.91 230.941L378.47 141.985C383.752 138.989 389.709 137.452 395.753 137.527C401.796 137.602 407.716 139.286 412.924 142.413C418.132 145.539 422.447 149.999 425.443 155.35C428.438 160.701 430.009 166.757 430 172.918V349.686C429.961 355.993 428.282 362.176 425.135 367.606C421.987 373.036 417.484 377.518 412.083 380.595L412.065 380.608L254.561 469.751C249.455 472.619 243.72 474.123 237.891 474.122ZM395.318 162.312C393.564 162.314 391.838 162.772 390.306 163.644L233.419 252.782C231.677 253.64 230.201 254.973 229.156 256.634C228.111 258.294 227.537 260.217 227.498 262.189V438.951C227.517 440.667 227.951 442.351 228.763 443.854C230.082 446.306 232.302 448.125 234.936 448.91C237.569 449.696 240.4 449.384 242.808 448.043L400.242 358.948C401.875 358.016 403.237 356.661 404.192 355.02C405.146 353.378 405.658 351.509 405.675 349.601V172.9C405.681 171.094 405.233 169.316 404.375 167.736C403.718 166.522 402.83 165.453 401.763 164.591C400.697 163.73 399.473 163.093 398.163 162.718C397.238 162.449 396.28 162.313 395.318 162.312Z" fill="#1E69FB"/>
<path opacity="0.65" d="M147.833 421.468C146.236 421.469 144.654 421.148 143.178 420.526C141.703 419.903 140.362 418.989 139.232 417.838C138.103 416.687 137.207 415.32 136.596 413.816C135.985 412.311 135.67 410.699 135.671 409.071V218.646C135.649 212.406 137.255 206.272 140.322 200.872C143.39 195.472 147.81 191 153.131 187.913L344.212 77.3215C345.602 76.5036 347.137 75.9742 348.728 75.7637C350.319 75.5531 351.936 75.6656 353.484 76.0948C355.033 76.5239 356.482 77.2611 357.75 78.2639C359.018 79.2667 360.078 80.5154 360.87 81.9379C361.663 83.3603 362.171 84.9285 362.366 86.5521C362.561 88.1757 362.438 89.8225 362.006 91.3978C361.574 92.973 360.84 94.4454 359.847 95.7303C358.854 97.0151 357.621 98.087 356.22 98.884L165.15 209.469C163.576 210.385 162.269 211.71 161.363 213.31C160.458 214.91 159.985 216.726 159.995 218.574V409.071C159.995 410.699 159.681 412.311 159.07 413.816C158.459 415.32 157.563 416.687 156.434 417.838C155.304 418.989 153.964 419.902 152.488 420.525C151.012 421.148 149.43 421.469 147.833 421.468Z" fill="#1E69FB"/>
<path opacity="0.25" d="M80.3332 352.168C78.7359 352.168 77.1542 351.848 75.6784 351.225C74.2026 350.602 72.8617 349.689 71.7322 348.538C70.6027 347.386 69.7069 346.02 69.0958 344.515C68.4848 343.011 68.1705 341.399 68.1709 339.77V170.297C68.2122 163.865 69.9895 157.57 73.308 152.099C76.6266 146.629 81.3583 142.196 86.9846 139.285L276.796 31.3997C279.613 29.7989 282.939 29.4047 286.042 30.3038C287.579 30.7489 289.014 31.4982 290.266 32.5088C291.519 33.5194 292.563 34.7715 293.341 36.1937C294.118 37.6159 294.614 39.1803 294.798 40.7975C294.983 42.4147 294.853 44.0532 294.416 45.6193C293.979 47.1854 293.244 48.6484 292.253 49.9249C291.261 51.2015 290.033 52.2664 288.638 53.059L98.4165 161.168C96.6797 161.996 95.2047 163.303 94.1584 164.941C93.1121 166.579 92.5361 168.482 92.4956 170.436V339.77C92.496 341.399 92.1817 343.011 91.5707 344.515C90.9596 346.02 90.0637 347.386 88.9343 348.538C87.8048 349.689 86.4639 350.602 84.9881 351.225C83.5123 351.848 81.9305 352.168 80.3332 352.168Z" fill="#1E69FB"/>
</svg>
